<svg xmlns="http://www.w3.org/2000/svg" width="1300" height="1300" viewBox="0 0 1300 1300" version="1.1"><path d="M 321.500 109.642 C 262.967 116.314, 218.667 133.466, 174.127 166.702 C 158.807 178.134, 131.157 205.772, 119.806 221 C 87.990 263.682, 69.505 309.699, 63.565 361 C 62.184 372.932, 62.002 407.023, 62.002 654.500 C 62.002 901.977, 62.184 936.068, 63.565 948 C 69.505 999.301, 87.990 1045.318, 119.806 1088 C 131.157 1103.228, 158.807 1130.866, 174.127 1142.298 C 208.299 1167.797, 244.165 1184.448, 284.233 1193.413 C 313.557 1199.975, 281.344 1199.407, 644 1199.748 C 938.992 1200.026, 973.928 1199.895, 986.500 1198.468 C 1037.809 1192.643, 1084.377 1174.009, 1126.873 1142.298 C 1142.193 1130.866, 1169.843 1103.228, 1181.194 1088 C 1213.010 1045.318, 1231.495 999.301, 1237.435 948 C 1238.816 936.068, 1238.998 901.977, 1238.998 654.500 C 1238.998 407.023, 1238.816 372.932, 1237.435 361 C 1231.495 309.699, 1213.010 263.682, 1181.194 221 C 1169.843 205.772, 1142.193 178.134, 1126.873 166.702 C 1084.558 135.127, 1038.101 116.482, 987 110.565 C 974.999 109.176, 937.464 109.019, 649 109.151 C 470.525 109.233, 323.150 109.454, 321.500 109.642 M 324.500 111.100 C 280.622 114.699, 238.359 128.158, 201.500 150.271 C 121.571 198.222, 71.565 279.387, 64.033 373.395 C 62.610 391.158, 62.610 917.842, 64.033 935.605 C 68.783 994.887, 89.245 1046.981, 125.857 1093 C 135.552 1105.187, 156.813 1126.448, 169 1136.143 C 215.019 1172.755, 267.113 1193.217, 326.395 1197.967 C 343.848 1199.365, 956.616 1199.395, 974.605 1197.999 C 1033.226 1193.448, 1086.079 1172.677, 1132 1136.143 C 1144.187 1126.448, 1165.448 1105.187, 1175.143 1093 C 1211.755 1046.981, 1232.217 994.887, 1236.967 935.605 C 1238.390 917.842, 1238.390 391.158, 1236.967 373.395 C 1231.238 301.894, 1201.051 237.451, 1150.803 189.452 C 1102.280 143.100, 1042.442 116.468, 974.605 111.033 C 959.008 109.784, 339.774 109.847, 324.500 111.100 M 496.500 317.590 C 490.450 318.320, 483.137 319.386, 480.250 319.959 C 477.363 320.531, 472.863 321.426, 470.250 321.946 C 461.357 323.718, 451.071 326.985, 438.275 332.102 C 431.249 334.912, 423.363 337.907, 420.750 338.758 C 418.137 339.608, 416 340.685, 416 341.152 C 416 341.618, 415.493 342, 414.874 342 C 413.134 342, 402.849 347.362, 390.206 354.860 C 387.294 356.587, 384.739 358, 384.527 358 C 383.242 358, 363.125 372.142, 358.565 376.250 C 357.497 377.212, 356.347 378, 356.010 378 C 354.819 378, 327.996 405.599, 322.481 412.500 C 313.091 424.249, 297.675 447.988, 291.260 460.575 C 281.964 478.814, 272.285 504.516, 266.057 527.500 C 261.619 543.874, 258.710 591.584, 260.874 612.500 C 262.730 630.438, 266.963 653.620, 270.644 666 C 274.385 678.579, 283.794 703.497, 287.827 711.500 C 289.766 715.350, 293.116 722.100, 295.270 726.500 C 297.425 730.900, 301.022 737.425, 303.264 741 C 311.332 753.866, 320.524 767.548, 322.740 769.990 C 323.983 771.359, 325 772.787, 325 773.162 C 325 773.538, 327.068 776.117, 329.595 778.894 C 332.122 781.671, 335.491 785.908, 337.082 788.310 C 338.672 790.711, 341.217 793.998, 342.737 795.613 C 344.257 797.228, 347.970 801.464, 350.989 805.025 C 362.061 818.086, 394.430 851.001, 412.553 867.625 C 423.695 877.846, 430.384 883.460, 451 899.894 C 456.775 904.497, 462.175 909.015, 463 909.933 C 463.825 910.850, 470.125 915.363, 477 919.961 C 488.552 927.686, 499.806 935.706, 501 937.064 C 501.275 937.376, 504.200 939.146, 507.500 940.997 C 510.800 942.848, 517.402 946.968, 522.171 950.154 C 526.941 953.339, 532.453 956.858, 534.421 957.973 C 536.390 959.088, 539.688 960.953, 541.750 962.117 C 543.813 963.281, 546.694 965.081, 548.154 966.117 C 549.614 967.153, 551.035 968, 551.312 968 C 551.588 968, 557.298 971.150, 564 975 C 570.702 978.850, 576.437 982, 576.745 982 C 577.053 982, 583.649 985.111, 591.402 988.913 C 614.584 1000.279, 622.264 1003.746, 627 1004.983 C 629.475 1005.630, 633.300 1006.685, 635.500 1007.329 C 640.872 1008.902, 659.065 1008.788, 666.500 1007.136 C 672.387 1005.828, 676.314 1004.465, 684.695 1000.823 C 687.002 999.820, 689.544 999, 690.343 999 C 691.628 999, 705.245 992.730, 713.500 988.338 C 715.150 987.460, 721.900 983.943, 728.500 980.523 C 735.100 977.102, 742.300 973.265, 744.500 971.995 C 752.392 967.439, 758.575 964.041, 763 961.830 C 765.475 960.594, 768.048 959.048, 768.717 958.396 C 769.386 957.743, 772.986 955.504, 776.717 953.420 C 780.448 951.336, 784.105 949.028, 784.845 948.292 C 785.584 947.556, 787.609 946.222, 789.345 945.328 C 794.161 942.846, 809.927 932.158, 815.139 927.842 C 817.690 925.729, 820.208 924, 820.734 924 C 821.260 924, 822.505 923.100, 823.500 922 C 824.495 920.900, 825.878 920, 826.572 920 C 827.266 920, 827.983 919.622, 828.167 919.159 C 828.459 918.421, 832.526 915.201, 841 908.995 C 848.551 903.465, 864.664 891.400, 865.671 890.522 C 870.469 886.337, 878.111 879.751, 887.500 871.709 C 898.435 862.343, 918.488 842.883, 929 831.436 C 940.290 819.141, 949.889 808.348, 953.846 803.500 C 966.398 788.119, 974.890 777.149, 976.293 774.500 C 977.168 772.850, 979.034 770.193, 980.441 768.594 C 981.849 766.996, 983 765.341, 983 764.916 C 983 764.491, 983.566 763.548, 984.258 762.821 C 991.072 755.662, 1013.166 716.126, 1017.504 703.329 C 1018.405 700.673, 1020.189 695.800, 1021.470 692.500 C 1034.201 659.690, 1037.940 642.879, 1040.038 609 C 1041.838 579.945, 1038.953 543.920, 1032.991 521 C 1032.490 519.075, 1031.442 514.800, 1030.662 511.500 C 1028.533 502.486, 1017.921 474.940, 1011.784 462.492 C 997.081 432.670, 982.167 412.150, 958.336 388.953 C 947.187 378.101, 938.134 370.211, 932 365.999 C 930.075 364.678, 928.275 363.320, 928 362.982 C 927.127 361.910, 918.604 356.296, 913.968 353.740 C 892.808 342.073, 886.386 338.737, 881 336.611 C 878.525 335.635, 875.150 334.224, 873.500 333.477 C 866.960 330.515, 843.068 323.308, 836.500 322.317 C 834.850 322.068, 832.600 321.491, 831.500 321.035 C 827.822 319.512, 807.650 317.070, 793.500 316.435 C 782.446 315.940, 775.397 316.270, 760 318.005 C 749.275 319.213, 739.742 320.606, 738.816 321.101 C 737.889 321.595, 735.958 322, 734.525 322 C 733.091 322, 729.124 322.868, 725.709 323.928 C 722.294 324.989, 716.125 326.877, 712 328.125 C 707.875 329.372, 704.350 330.755, 704.167 331.197 C 703.983 331.638, 703.308 331.998, 702.667 331.995 C 700.683 331.985, 685.761 338.237, 680.706 341.195 C 678.069 342.738, 675.633 344, 675.293 344 C 674.152 344, 656.426 354.880, 652.553 357.958 C 650.448 359.631, 648.632 361, 648.518 361 C 648.404 361, 647.004 359.843, 645.406 358.430 C 636.183 350.271, 616.312 338.612, 602 332.963 C 592.489 329.209, 570.672 322.230, 566.500 321.606 C 564.300 321.278, 560.250 320.571, 557.500 320.036 C 536.329 315.915, 516.843 315.134, 496.500 317.590 M 496 354.101 C 491.875 354.541, 486.475 355.332, 484 355.858 C 481.525 356.384, 477.025 357.285, 474 357.859 C 466.449 359.292, 452.520 364.005, 446.764 367.074 C 445.809 367.583, 444.534 368, 443.932 368 C 442.721 368, 419.500 379.478, 412.155 383.707 C 388.231 397.483, 357.949 424.986, 343 446.519 C 341.625 448.499, 340.023 450.655, 339.440 451.310 C 334.035 457.380, 321.973 478.839, 316.007 493 C 314.269 497.125, 312.258 501.850, 311.537 503.500 C 309.521 508.114, 303.157 528.956, 301.901 535.056 C 297.351 557.165, 295.999 569.643, 296.010 589.436 C 296.018 605.991, 298.042 646.030, 299.601 660.500 C 300.644 670.184, 303.598 675.240, 310.243 678.721 C 314.223 680.805, 315.750 681.085, 319.986 680.502 C 324.993 679.813, 326.634 678.642, 331.801 672.069 C 334.472 668.670, 339.924 668.171, 374.500 668.157 C 403.776 668.146, 414.104 668.812, 414.751 670.754 C 414.946 671.337, 415.981 672.826, 417.053 674.061 C 418.124 675.296, 419 676.697, 419 677.175 C 419 677.653, 421.113 679.384, 423.696 681.022 C 430.134 685.105, 434.900 685.050, 439.527 680.839 C 441.437 679.101, 443 676.999, 443 676.168 C 443 675.337, 443.580 673.947, 444.288 673.079 C 444.997 672.210, 446.597 667.225, 447.844 662 C 449.091 656.775, 450.574 650.700, 451.138 648.500 C 452.610 642.766, 453.711 638.084, 454.666 633.500 C 455.125 631.300, 455.950 629.598, 456.500 629.717 C 458.284 630.106, 460.144 644.711, 465.515 700.500 C 466.891 714.800, 468.468 729.200, 469.018 732.500 C 469.569 735.800, 470.937 746.150, 472.060 755.500 C 474.350 774.572, 475.358 779.619, 478.101 785.739 C 479.145 788.071, 480 790.187, 480 790.442 C 480 790.697, 482.070 793.154, 484.601 795.901 C 498.085 810.539, 513.822 809.561, 525.570 793.356 C 528.053 789.931, 533.293 776.822, 535.506 768.500 C 541.453 746.133, 543.999 735.082, 544.006 731.613 C 544.010 729.901, 544.625 727.325, 545.375 725.889 C 546.521 723.692, 548.848 714.679, 559.030 673 C 559.500 671.075, 560.649 666.125, 561.583 662 C 562.516 657.875, 564.342 650.900, 565.639 646.500 C 571.052 628.142, 573.241 619.918, 575.486 609.500 C 576.790 603.450, 578.576 595.350, 579.455 591.500 C 580.333 587.650, 581.859 580.927, 582.845 576.560 C 583.831 572.194, 585.105 568.465, 585.675 568.275 C 586.246 568.085, 586.981 570.080, 587.310 572.714 C 587.638 575.347, 588.799 583.575, 589.891 591 C 592.937 611.729, 598.353 659.252, 599.976 679.500 C 601.308 696.100, 605.165 732.134, 607.522 750 C 608.357 756.325, 609.697 767.125, 610.500 774 C 617.705 835.655, 619.339 842.701, 628.645 852.250 C 629.871 853.509, 631.935 854, 635.995 854 C 646.534 854, 651.498 846.905, 655.586 826 C 657.663 815.379, 662.116 796.343, 667.165 776.500 C 668.284 772.100, 669.826 765.575, 670.592 762 C 671.357 758.425, 672.412 754.375, 672.936 753 C 674.070 750.027, 676.421 740.717, 678.997 729 C 680.025 724.325, 681.607 717.575, 682.513 714 C 683.420 710.425, 685.049 703.675, 686.133 699 C 688.555 688.555, 689.404 685.164, 691.518 677.500 C 694.318 667.351, 697.698 652.849, 698.977 645.500 C 699.647 641.650, 701.036 635.575, 702.062 632 C 703.089 628.425, 705.977 615.150, 708.481 602.500 C 710.984 589.850, 714.150 575.985, 715.516 571.688 C 716.882 567.392, 718.003 562.667, 718.006 561.188 C 718.009 559.710, 718.426 556.925, 718.932 555 C 719.439 553.075, 720.368 548.913, 720.998 545.750 C 722.197 539.724, 723.405 538.457, 724.335 542.250 C 724.973 544.853, 726.446 559.664, 727.990 579 C 729.157 593.608, 731.410 617.119, 733.021 631.500 C 733.576 636.450, 734.721 650.850, 735.566 663.500 C 736.411 676.150, 737.759 692.575, 738.561 700 C 740.396 716.987, 741.496 727.987, 744.061 755 C 746.774 783.568, 748.325 788.982, 756.553 798.614 C 765.020 808.525, 774.399 810.520, 785.819 804.841 C 790.527 802.500, 793.132 800.365, 795.883 796.591 C 802.767 787.147, 805.607 778.188, 821.111 717 C 825.500 699.675, 830.934 679.650, 833.186 672.500 C 835.438 665.350, 838.087 656.350, 839.072 652.500 C 842.742 638.161, 844.531 632.653, 845.639 632.285 C 846.307 632.064, 847.666 634.921, 848.929 639.204 C 857.685 668.899, 863.249 685.581, 867.097 693.678 C 869.536 698.810, 870.628 700.052, 873.542 701.014 C 878.972 702.806, 886.188 700.607, 889.785 696.066 C 894.811 689.720, 895.494 686.825, 894.057 677.975 C 893.359 673.673, 893.086 669.669, 893.453 669.077 C 894.183 667.895, 960.442 667.517, 967.331 668.655 C 970.276 669.142, 971.719 670.129, 973.567 672.921 C 974.952 675.015, 978.280 677.803, 981.420 679.502 C 986.557 682.281, 987.130 682.380, 991.411 681.235 C 996.857 679.778, 1000 677.306, 1000 674.478 C 1000 673.335, 1000.407 671.972, 1000.903 671.450 C 1001.400 670.927, 1002.365 657.788, 1003.048 642.251 C 1005.011 597.545, 1003.483 558.665, 998.989 539 C 992.724 511.588, 987.167 495.478, 976.739 474.500 C 972.817 466.610, 958.753 444.750, 953.301 438.068 C 950.245 434.323, 937.411 420.477, 935 418.323 C 934.174 417.586, 928.999 412.696, 923.500 407.457 C 918 402.218, 912.487 397.673, 911.250 397.358 C 910.013 397.042, 909 396.243, 909 395.582 C 909 393.701, 885.708 379.695, 875.922 375.691 C 873.490 374.696, 870.600 373.375, 869.500 372.757 C 860.028 367.430, 835.244 358.930, 823.500 356.981 C 819.650 356.342, 814.647 355.418, 812.381 354.928 C 800.644 352.389, 764.323 352.974, 748.500 355.957 C 745.750 356.475, 740.908 357.379, 737.739 357.965 C 722.835 360.723, 699.945 371.346, 681.847 383.904 C 678.356 386.327, 675.275 388.607, 675 388.970 C 674.725 389.334, 672.475 391.012, 670 392.700 C 667.525 394.387, 664.643 396.720, 663.595 397.884 C 662.547 399.048, 661.285 400, 660.791 400 C 660.296 400, 658.453 401.360, 656.696 403.023 C 651.030 408.382, 648.913 408.110, 641 401.006 C 629.677 390.840, 618.117 382.308, 609 377.389 C 607.075 376.350, 605.275 375.230, 605 374.901 C 604.136 373.866, 587.493 366, 586.167 366 C 585.472 366, 583.238 365.202, 581.202 364.227 C 579.166 363.252, 574.125 361.384, 570 360.077 C 565.875 358.769, 561.600 357.342, 560.500 356.906 C 559.400 356.470, 556.475 355.870, 554 355.571 C 551.525 355.273, 545.900 354.601, 541.500 354.078 C 532.053 352.954, 506.639 352.967, 496 354.101 M 500.500 379.088 C 497.750 379.564, 492.350 380.471, 488.500 381.104 C 478.510 382.748, 467.092 385.849, 459.500 388.980 C 458.400 389.434, 454.800 390.819, 451.500 392.058 C 444.342 394.746, 432.703 400.114, 432 401.051 C 431.725 401.418, 429.475 402.804, 427 404.132 C 422.356 406.624, 417.621 409.608, 415 411.694 C 414.175 412.351, 410.616 415.030, 407.092 417.648 C 403.567 420.266, 399.695 423.328, 398.487 424.454 C 397.279 425.579, 391.764 430.679, 386.230 435.786 C 380.696 440.893, 373.547 448.318, 370.343 452.286 C 367.138 456.254, 363.782 460.179, 362.884 461.008 C 361.075 462.679, 352 477.680, 352 478.999 C 352 479.458, 351.626 479.983, 351.170 480.167 C 350.249 480.537, 340.234 500.057, 338.942 504 C 338.492 505.375, 336.518 511, 334.556 516.500 C 329.689 530.142, 325.171 548.745, 323.021 564 C 320.897 579.077, 323.094 638.048, 325.898 641.216 C 326.549 641.951, 421.865 642.469, 422.592 641.741 C 423.306 641.028, 427 625.755, 427 623.518 C 427 622.329, 427.622 619.364, 428.383 616.928 C 429.143 614.493, 430.338 610.475, 431.039 608 C 433.316 599.954, 440.742 589, 443.919 589 C 444.435 589, 445.645 588.212, 446.607 587.250 C 449.387 584.471, 463.986 584.781, 470.246 587.753 C 474.942 589.983, 480.150 595.772, 482.161 601 C 482.690 602.375, 483.801 604.850, 484.630 606.500 C 485.932 609.092, 489.872 635.095, 491.525 652 C 491.821 655.025, 492.947 665.825, 494.027 676 C 495.108 686.175, 496.661 704.625, 497.477 717 C 498.294 729.375, 499.609 743.775, 500.399 749 C 501.189 754.225, 502.141 761.178, 502.515 764.452 C 503.223 770.654, 504.134 770.516, 505.510 764 C 505.916 762.075, 507.033 759.375, 507.993 758 C 510.770 754.018, 514.771 739.004, 522.115 705 C 524.052 696.030, 525.472 689.917, 531.581 664.253 C 532.989 658.339, 534.341 652.600, 534.586 651.500 C 534.831 650.400, 536.854 642.525, 539.081 634 C 541.309 625.475, 543.594 616.025, 544.158 613 C 546.036 602.944, 546.716 599.579, 548.908 589.500 C 550.982 579.965, 554.671 562.331, 555.707 557 C 559.473 537.629, 566.629 508.084, 568.464 504.328 C 571.212 498.702, 573.478 496.605, 579.856 493.785 C 586.614 490.797, 592.852 491.097, 598.165 494.665 C 603.157 498.018, 609.508 506.932, 610.494 511.970 C 610.868 513.879, 611.748 517.254, 612.450 519.470 C 613.153 521.687, 614.238 528.225, 614.862 534 C 617.273 556.328, 620.473 587.322, 622.967 612.500 C 623.512 618, 624.642 629.250, 625.478 637.500 C 626.314 645.750, 627.892 661.500, 628.983 672.500 C 630.075 683.500, 631.429 696.325, 631.993 701 C 632.556 705.675, 633.477 715.125, 634.039 722 C 634.602 728.875, 635.494 737.200, 636.022 740.500 C 636.551 743.800, 637.187 748.300, 637.436 750.500 C 638.201 757.254, 640.159 764.242, 641.036 763.348 C 642.273 762.088, 655.051 709.763, 656.507 700 C 656.876 697.525, 658.198 691.225, 659.446 686 C 660.693 680.775, 662.728 671.775, 663.968 666 C 665.208 660.225, 667.029 652.575, 668.016 649 C 669.002 645.425, 670.552 638.675, 671.460 634 C 672.368 629.325, 673.723 623.250, 674.472 620.500 C 676.377 613.502, 679.565 599.603, 686.970 566 C 688.048 561.109, 694.783 531.869, 698.108 517.645 C 700.272 508.386, 703.351 502.492, 709.136 496.537 C 711.819 493.774, 713.846 492.765, 718.529 491.859 C 726.461 490.325, 728.373 490.534, 734.989 493.659 C 746.607 499.144, 750.706 509.039, 753.569 538.500 C 755.344 556.777, 756.046 564.053, 758.919 594 C 761.337 619.193, 762.393 630.076, 764.405 650.500 C 765.218 658.750, 766.596 675.625, 767.468 688 C 768.339 700.375, 769.513 715, 770.076 720.500 C 774.868 767.358, 775.581 772, 777.981 772 C 779.242 772, 779.932 771.026, 780.286 768.750 C 780.563 766.962, 782.197 760.100, 783.916 753.500 C 785.634 746.900, 787.447 739.250, 787.944 736.500 C 788.883 731.308, 790.908 722.172, 793.598 711 C 794.458 707.425, 795.768 701.350, 796.507 697.500 C 797.247 693.650, 798.603 687.800, 799.520 684.500 C 800.438 681.200, 801.603 676.475, 802.108 674 C 802.614 671.525, 804.127 665.450, 805.469 660.500 C 806.812 655.550, 808.582 648.800, 809.402 645.500 C 810.223 642.200, 811.593 637.138, 812.447 634.250 C 816.415 620.838, 817.191 618.144, 818.569 613 C 820.783 604.740, 825.413 595.964, 829.825 591.664 C 833.561 588.023, 834.162 587.800, 841.631 587.288 C 850.814 586.660, 857.792 588.521, 862.349 592.815 C 867.179 597.368, 875.795 616.398, 879.637 631 C 882.063 640.222, 882.920 641.765, 885.829 642.148 C 892.014 642.963, 972.953 641.448, 973.866 640.500 C 975.505 638.799, 978 612.492, 978 596.912 C 978 578.206, 974.538 551.153, 969.629 531.500 C 966.906 520.599, 955.519 490.625, 953.028 487.803 C 952.395 487.086, 949.071 481.745, 945.641 475.933 C 926.366 443.279, 894.989 413.467, 863.996 398.358 C 841.122 387.208, 835.283 385.381, 802.201 379.019 C 789.015 376.483, 763.590 378.429, 743 383.548 C 728.771 387.086, 703.440 399.088, 692.351 407.546 C 685.128 413.055, 673.044 424.723, 658.816 439.927 C 655.690 443.267, 652.448 446, 651.611 446 C 650.774 446, 643.881 440.032, 636.294 432.738 C 619.352 416.450, 614.004 411.954, 602.500 404.331 C 584.722 392.552, 562.787 383.665, 540.174 379.080 C 533.972 377.822, 507.790 377.828, 500.500 379.088" stroke="none" fill="#5bd914" fill-rule="evenodd"/></svg>